<svg xmlns="http://www.w3.org/2000/svg" height="1200" width="1600" version="1.1" xmlns:xlink="http://www.w3.org/1999/xlink" xmlns:svgjs="http://svgjs.com/svgjs"><rect fill="#ffffff" width="1600" height="1200"></rect><g><path d="M225.97 895.92C225.97 895.92 394.32 454.87 922.78 487.36 1325.27 511.51 1374.32 895.92 1374.32 895.92H225.97Z" fill="#9dc3ae" opacity="1" stroke-width="4" stroke="none"></path><path d="M630.68 707.52C572.7 677.81 521.42 639.74 480.17 595.17 293.98 717.74 225.97 895.92 225.97 895.92H1374.32C1367.63 853.21 1354.25 810.59 1336.41 769.73 1145.77 827.21 896.03 845.78 630.68 707.52Z" fill="#7a7a7a" opacity="0.3" stroke-width="4" stroke="none"></path></g><g><path d="M887.66 731.39C884.99 731.39 883.09 729.11 882.62 728.54 881.76 728.73 880.91 728.92 880.05 728.92 877.58 729.02 875.3 727.78 873.97 725.69 873.78 725.69 873.68 725.69 873.49 725.69 872.16 725.69 868.64 725.12 866.27 719.8 863.32 713.24 854.86 682.06 854.76 681.77L854.67 681.58 889.37 673.88V674.07C889.94 676.26 890.51 678.44 891.17 680.63 896.4 700.02 900.96 716.75 896.97 722.55 896.12 723.79 894.79 724.55 893.26 724.74 893.26 725.78 893.07 730.63 888.32 731.39 888.13 731.39 887.94 731.39 887.66 731.39Z" fill="#966636" opacity="1" stroke-width="4" stroke="none"></path><path d="M838.32 711.8L970.07 762.56 973.21 656.38 838.79 697.92C834.9 699.16 832.71 703.24 833.95 707.14 834.61 709.33 836.23 711.04 838.32 711.8Z" fill="#36b3dd" opacity="1" stroke-width="4" stroke="none"></path><path d="M838.32 711.8L970.07 762.56 973.21 656.38 954.86 677.29C954.86 677.29 971.97 722.92 929.2 725.77 898.11 727.87 838.32 711.8 838.32 711.8Z" fill="#000000" opacity="0.3" stroke-width="4" stroke="none"></path><path d="M1036.85 718.76C1037.71 715.61 1029.9 710.76 1019.4 707.92 1008.91 705.08 999.71 705.33 998.87 708.47 998.01 711.61 1005.83 716.46 1016.32 719.3 1026.82 722.14 1036.01 721.9 1036.85 718.76Z" fill="#162d34" opacity="1" stroke-width="4" stroke="none"></path><path d="M1019.95 690.14C1032.11 684.04 1040.38 675.94 1038.43 672.06 1036.47 668.16 1025.04 669.94 1012.88 676.03 1000.72 682.12 992.45 690.22 994.41 694.11 996.36 698.01 1007.79 696.23 1019.95 690.14Z" fill="#162d34" opacity="1" stroke-width="4" stroke="none"></path><path d="M1013.61 709.42C1015.89 688.23 1007 669.9 993.74 668.47 980.48 667.04 967.88 683.06 965.6 704.25 963.31 725.44 972.2 743.78 985.46 745.21 998.73 746.64 1011.32 730.62 1013.61 709.42Z" fill="#ffffff" opacity="1" stroke-width="4" stroke="none"></path><path d="M994.51 707.37C994.98 703.04 993.16 699.28 990.45 699 987.74 698.7 985.15 701.97 984.68 706.31 984.22 710.64 986.04 714.39 988.75 714.68 991.47 714.98 994.05 711.7 994.51 707.37Z" fill="#ffffff" opacity="1" stroke-width="4" stroke="none"></path><path d="M980.09 652.25C988.37 642.27 992.49 632.03 989.3 629.38 986.1 626.74 976.8 632.68 968.53 642.67 960.25 652.65 956.14 662.89 959.33 665.54 962.52 668.19 971.82 662.24 980.09 652.25Z" fill="#162d34" opacity="1" stroke-width="4" stroke="none"></path><path d="M958.1 636.91C959.6 626.15 958.04 617.03 954.61 616.56 951.18 616.07 947.17 624.41 945.66 635.17 944.16 645.93 945.72 655.05 949.15 655.53 952.58 656.01 956.58 647.68 958.1 636.91Z" fill="#162d34" opacity="1" stroke-width="4" stroke="none"></path><path d="M939.48 706.26C947.75 696.27 951.88 686.03 948.68 683.39 945.49 680.73 936.19 686.69 927.91 696.67 919.63 706.65 915.52 716.9 918.71 719.54 921.91 722.18 931.2 716.24 939.48 706.26Z" fill="#162d34" opacity="1" stroke-width="4" stroke="none"></path><path d="M961.53 711.95C976.38 708.36 984.44 688.99 979.52 668.67 974.61 648.37 958.58 634.82 943.73 638.41 928.88 642.01 920.83 661.38 925.75 681.68 930.66 702 946.68 715.55 961.53 711.95Z" fill="#ffffff" opacity="1" stroke-width="4" stroke="none"></path><path d="M965.32 710.57C976.73 705.25 983 689.76 980.34 672.93" stroke="#575757" stroke-width="4" stroke-linecap="round" stroke-linejoin="round" opacity="1" fill="none"></path><path d="M954.45 682.66C957.46 681.93 959.08 678 958.09 673.86 957.09 669.73 953.84 666.97 950.82 667.69 947.81 668.42 946.18 672.37 947.18 676.49 948.18 680.63 951.43 683.4 954.45 682.66Z" fill="#ffffff" opacity="1" stroke-width="4" stroke="none"></path><path d="M926.8 779.22C940.95 774.35 951.16 766.75 949.61 762.23 948.05 757.71 935.32 757.99 921.17 762.86 907.02 767.73 896.81 775.34 898.37 779.85 899.92 784.38 912.65 784.09 926.8 779.22Z" fill="#162d34" opacity="1" stroke-width="4" stroke="none"></path><path d="M999.91 795.89C1003.15 793.31 999.24 782.99 991.17 772.84 983.09 762.7 973.91 756.56 970.66 759.15 967.42 761.73 971.34 772.05 979.42 782.19 987.49 792.35 996.67 798.47 999.91 795.89Z" fill="#162d34" opacity="1" stroke-width="4" stroke="none"></path><path d="M982.67 779.75C997.07 762.36 998.41 739.71 985.67 729.17 972.93 718.62 950.94 724.16 936.55 741.55 922.14 758.94 920.79 781.58 933.53 792.14 946.27 802.68 968.27 797.14 982.67 779.75Z" fill="#ffffff" opacity="1" stroke-width="4" stroke="none"></path><path d="M993.84 743.74C992.89 738.04 990.04 732.9 985.66 729.2 980.53 724.92 973.88 723.3 966.84 723.97" stroke="#575757" stroke-width="4" stroke-linecap="round" stroke-linejoin="round" opacity="1" fill="none"></path><path d="M964.29 764.53C967.24 760.98 967.53 756.35 964.94 754.21 962.35 752.06 957.87 753.21 954.92 756.76 951.97 760.33 951.68 764.95 954.27 767.09 956.86 769.24 961.35 768.09 964.29 764.53Z" fill="#ffffff" opacity="1" stroke-width="4" stroke="none"></path><path d="M899.25 701.82C894.02 701.82 884.61 690.22 881.57 686.04L862.56 690.79 862.46 690.6C860.85 685.66 823.39 570.63 823.49 566.93V566.74L863.22 562.55 863.61 564.17C865.22 572.16 867.03 579.95 869.4 587.75 872.07 596.11 874.54 603.24 877.2 610.75 881.48 622.92 885.94 635.47 891.27 654.29 891.84 656.19 892.41 658.38 893.07 660.66 897.45 675.87 903.34 696.69 901.72 700.01 901.34 701.25 900.39 701.82 899.25 701.82Z" fill="#966636" opacity="1" stroke-width="4" stroke="none"></path><path d="M751.72 457.04V456.94C751.05 443.63 755.33 412.45 755.14 400.47 754.85 373.95 763.79 369.48 787.56 367.58 789.93 367.39 790.79 364.35 793.07 364.35 810.94 364.35 824.15 359.6 831.95 371.86 836.51 378.99 837.46 388.31 838.51 398.1 838.98 402.57 839.46 407.32 840.32 412.07L840.51 413.31C842.41 423.67 844.31 434.41 838.41 443.06 833.57 450.1 823.96 451.62 816.74 451.62 813.7 451.62 810.66 451.33 807.61 450.86V492.3L751.72 457.04Z" fill="#966636" opacity="1" stroke-width="4" stroke="none"></path><path d="M783.75 423.49L778.43 419.59" stroke="#000000" stroke-width="4" stroke-linecap="round" stroke-linejoin="round" opacity="1" fill="none"></path><path d="M807.52 450.87C803.62 449.63 800.29 447.92 796.4 446.21" stroke="#000000" stroke-width="4" stroke-linecap="round" stroke-linejoin="round" opacity="1" fill="none"></path><path d="M823.77 410.75L824.53 412.84C824.92 413.98 824.72 415.31 823.87 416.26L823.68 416.55" stroke="#000000" stroke-width="4" stroke-linecap="round" stroke-linejoin="round" opacity="1" fill="none"></path><path d="M826.82 426.44C825.49 427.48 821.11 427.96 818.36 425.01" stroke="#000000" stroke-width="4" stroke-linecap="round" stroke-linejoin="round" opacity="1" fill="none"></path><path d="M812.18 411.7C813.54 411.7 814.65 410.59 814.65 409.23 814.65 407.86 813.54 406.76 812.18 406.76 810.81 406.76 809.71 407.86 809.71 409.23 809.71 410.59 810.81 411.7 812.18 411.7Z" fill="#231f20" opacity="1" stroke-width="4" stroke="none"></path><path d="M831.76 409.89C833.12 409.89 834.23 408.78 834.23 407.41 834.23 406.05 833.12 404.94 831.76 404.94 830.39 404.94 829.29 406.05 829.29 407.41 829.29 408.78 830.39 409.89 831.76 409.89Z" fill="#231f20" opacity="1" stroke-width="4" stroke="none"></path><path d="M850.3 984.83L848.4 983.3C842.98 963.34 839.36 943 837.75 922.37V921.13L877.01 840.43 919.6 922.56C920.64 936.82 921.59 946.61 923.49 955.64L899.82 971.42C895.45 971.42 889.84 959.73 889.84 964.1 889.84 964.67 893.74 968.1 893.83 968.67L888.51 983.4 850.3 984.83Z" fill="#966636" opacity="1" stroke-width="4" stroke="none"></path><path d="M696.87 983.49L695.82 983.02C694.78 974.94 692.3 954.6 692.3 937.87 692.3 931.88 692.4 926.65 692.68 921.32L738.22 841.19 765.88 919.8 766.93 921.99C763.32 938.06 762.17 947.47 762.27 955.64V955.83H732.42C728.05 955.83 724.53 959.35 724.53 963.72 724.53 964.29 724.63 964.86 724.72 965.43L728.71 983.4 698.01 984.73 696.87 983.49Z" fill="#966636" opacity="1" stroke-width="4" stroke="none"></path><path d="M891.46 921.32L877.67 875.59C877.48 874.93 876.44 874.93 876.25 875.69L866.08 921.41 837.75 922.36 837.65 921.41C836.61 907.06 835.94 892.89 835.94 878.35 835.94 870.84 836.04 864.09 836.13 858.19 836.32 848.78 836.42 841.27 835.94 835.19 834.23 811.42 827.2 790.89 811.8 764.46 808.28 758.48 804.86 752.39 801.63 746.31 800.2 760.95 798.68 774.26 797.25 785.85 793.64 811.42 788.41 836.81 781.57 861.81 780.05 867.61 778.62 873.02 777.38 878.44 775.67 885.76 774.06 892.7 772.35 899.36 770.45 907.15 768.64 914.57 767.12 921.32L766.93 921.98 743.64 921.51 733.09 876.92C732.9 876.35 732.14 876.26 731.85 876.83L714.36 921.32H692.68V921.13C693.54 904.58 695.63 893.37 697.91 881.39L698.48 878.16C700 869.79 701.62 862.19 703.14 854.87 706.18 840.51 708.94 827.01 711.22 809.43 713.6 790.99 712.84 769.22 712.08 746.21 710.65 700.3 708.94 648.3 731.18 607.33L731.28 607.23H841.08L841.17 607.33C841.74 608.56 900.11 735.09 909.33 797.93 914.08 829.39 914.84 846.6 915.98 872.55L916.27 878.35C917.12 888.61 917.79 898.22 918.36 906.77 918.74 911.9 919.22 917.99 919.6 922.55L891.46 921.32Z" fill="#30ffd5" opacity="1" stroke-width="4" stroke="none"></path><path d="M719.68 636.04C722.63 626.06 725.39 618.55 730.14 609.42L731.56 607.14H800.96V607.52C780.33 610.37 760.27 616.07 741.26 624.63 727.57 630.81 720.06 636.23 720.06 636.23L719.59 636.51 719.68 636.04Z" fill="#000000" opacity="0.3" stroke-width="4" stroke="none"></path><path d="M837.75 922.37C836.61 908.02 836.13 894.04 836.13 879.5 836.13 871.99 836.23 865.24 836.32 859.34 836.51 849.93 836.61 842.42 836.13 836.34 834.42 812.57 827.86 791.95 812.46 765.52 809.04 759.72 805.33 753.35 802.1 747.17L806.47 675.59 806.57 675.5C807.23 675.02 807.99 674.83 808.75 674.83 810.18 674.83 812.37 675.59 814.46 679.3 817.69 685 851.53 781.68 851.53 841.95 851.53 900.22 853.43 921.42 853.43 921.61V921.9L837.75 922.37Z" fill="#000000" opacity="0.3" stroke-width="4" stroke="none"></path><path d="M801.72 746.51C803.72 726.26 805.14 693.56 806.47 674.36" stroke="#000000" stroke-width="4" stroke-linecap="round" stroke-linejoin="round" opacity="1" fill="none"></path><path d="M831.95 372.05C824.15 359.79 811.7 353.89 793.83 353.89 791.55 353.89 789.27 353.99 786.89 354.18 780.52 354.66 774.82 356.27 769.97 358.84 769.61 359.02 771.59 351.71 771.59 347.91 771.59 327.09 754.66 310.17 733.85 310.17 713.03 310.17 696.11 327.09 696.11 347.91 696.11 368.72 713.03 385.65 733.85 385.65 740.41 385.65 746.58 383.93 751.91 381.08 752.56 380.71 749.25 390.67 749.34 399.52 749.34 401.05 749.34 401.9 749.44 403.14 749.53 404.18 749.53 405.42 749.63 407.6 744.3 406.27 738.69 405.7 733.18 405.7 714.17 405.7 687.55 412.36 668.63 444.39 659.41 460.74 657.51 480.71 663.41 499.34 667.4 511.89 674.43 521.77 681.85 525.39 679.57 532.13 678.43 539.17 678.52 546.3 678.71 556.85 682.32 571.2 698.1 579.57 704.28 582.8 711.22 584.51 718.16 584.51 742.88 584.51 767.4 563.03 769.87 539.74 773.58 502.1 754.66 469.77 752 466.54 754.57 465.59 777 438.4 777 438.4 776.81 438.21 755.9 422.62 764.27 409.6 766.74 405.7 770.06 403.71 774.25 403.71 783.37 403.71 793.35 413.31 793.45 413.4L793.54 413.5 793.64 413.4C800.29 406.56 798.87 397.43 800.58 397.11 801.24 396.67 804.1 397.34 807.04 397.43 810.66 397.43 813.51 396.1 815.31 393.73 817.5 390.78 817.88 386.41 820.05 384.95 821.4 383.93 825.58 385.26 829.1 385.26 834.23 385.26 836.04 382.41 836.13 382.32V382.22 382.13C835.28 378.61 833.85 375.19 831.95 372.05Z" fill="#231f20" opacity="1" stroke-width="4" stroke="none"></path><path d="M680.14 470.34C677.86 467.11 675.67 464.07 673.48 461.03 670.82 457.32 668.25 453.8 665.69 450.19 664.64 448.67 663.41 447.05 662.17 445.34 650.48 429.37 630.8 402.76 616.26 325.66 613.59 323.95 570.63 296.95 571.58 290.3 571.77 289.16 572.53 287.16 575.95 287.16 578.9 287.16 583.17 288.59 588.78 291.44L588.69 291.34C584.03 286.88 571.77 274.99 573.1 268.24 573.48 266.53 574.71 265.11 576.33 264.54 574.71 262.16 574.43 259.4 575.57 257.31 576.71 255.13 579.18 253.89 582.51 253.89 583.08 253.89 583.55 253.89 584.03 253.99 585.65 251.42 588.4 249.9 591.44 249.99 598.67 249.99 607.99 256.55 616.26 262.35 619.58 264.82 623.01 267.01 626.62 269.01 626.14 266.72 623.67 255.13 626.71 251.32 627.28 250.56 628.23 250.09 629.28 250.09 629.47 250.09 629.66 250.09 629.85 250.09 635.65 251.04 645.25 269.29 653.8 286.31 657.89 294.58 666.07 315.59 673.96 335.93 682.42 357.7 691.16 380.23 694.59 386.12 697.34 390.78 710.37 407.7 726.72 424.62L726.81 424.72 680.23 470.25 680.14 470.34Z" fill="#966636" opacity="1" stroke-width="4" stroke="none"></path><path d="M731.37 608.47C718.73 596.68 718.92 583.37 719.02 567.97 719.11 554.19 719.3 538.5 710.37 520.54 701.62 503.05 691.54 486.22 680.14 470.34L679.85 469.96 726.72 424.62 726.81 424.72C763.51 462.74 785.56 470.92 797.63 470.92 798.2 470.92 798.87 470.92 799.44 470.82 807.04 470.82 807.61 462.36 807.61 462.36 825.58 466.16 833.76 472.82 842.12 482.99 850.77 495.92 855.33 520.63 859.8 544.4 861.04 550.96 862.27 557.71 863.61 564.17V564.36L847.54 568.92C849.82 583.09 851.53 598.96 842.12 608.37L842.03 608.47H731.37Z" fill="#1ddefc" opacity="1" stroke-width="4" stroke="none"></path><path d="M871.4 677.97C866.55 663.9 841.74 608.48 841.74 608.48 850.96 599.16 849.54 582.81 847.16 568.74 847.16 568.55 842.5 548.78 842.5 535.57V535.47L842.6 535.38C842.98 535.19 843.36 535.09 843.74 535.09 849.63 535.09 853.15 554.96 858.09 587.75 860.37 603.06 863.03 619.79 867.6 640.99 873.78 670.08 873.11 676.45 872.07 677.68 871.69 678.06 871.4 678.06 871.4 677.97Z" fill="#000000" opacity="0.3" stroke-width="4" stroke="none"></path><path d="M843.74 525C844.12 534.04 844.5 542.97 844.78 550.29 845.35 566.17 856 594.21 842.03 608.18H731.47" stroke="#000000" stroke-width="4" stroke-linecap="round" stroke-linejoin="round" opacity="1" fill="none"></path><path d="M679.85 469.96L726.72 424.62" stroke="#000000" stroke-width="4" stroke-linecap="round" stroke-linejoin="round" opacity="1" fill="none"></path><path d="M863.61 564.36L847.35 568.83" stroke="#000000" stroke-width="4" stroke-linecap="round" stroke-linejoin="round" opacity="1" fill="none"></path><path d="M626.62 269.01L629.75 279.94" stroke="#000000" stroke-width="4" stroke-linecap="round" stroke-linejoin="round" opacity="1" fill="none"></path><path d="M584.12 254.27C600.29 262.83 618.35 276.13 618.35 276.13" stroke="#000000" stroke-width="4" stroke-linecap="round" stroke-linejoin="round" opacity="1" fill="none"></path><path d="M576.52 264.73L608.84 288.49" stroke="#000000" stroke-width="4" stroke-linecap="round" stroke-linejoin="round" opacity="1" fill="none"></path><path d="M588.69 291.34L602.19 299.9" stroke="#000000" stroke-width="4" stroke-linecap="round" stroke-linejoin="round" opacity="1" fill="none"></path><path d="M877.86 680.14L881.57 686.04" stroke="#000000" stroke-width="4" stroke-linecap="round" stroke-linejoin="round" opacity="1" fill="none"></path><path d="M794.31 445.15C798.49 447.44 807.61 450.76 807.61 450.76V460.65L794.31 445.15Z" fill="#000000" opacity="0.3" stroke-width="4" stroke="none"></path><path d="M856 1008.31C853.15 1000.23 850.77 992.05 848.4 983.3L887.94 983.02 884.04 965.53C883.09 961.06 885.85 956.59 890.32 955.64 890.89 955.55 891.46 955.45 892.12 955.45L923.49 955.64C925.2 963.44 927.3 968.95 930.34 972.85 937.18 981.97 944.5 987.3 950.97 992.05 957.72 996.99 963.61 1001.27 966.75 1008.4L967.13 1017.43 856 1008.31Z" fill="#ffffff" opacity="1" stroke-width="4" stroke="none"></path><path d="M856.1 1008.58L856 1008.3H966.65L966.75 1008.39C968.55 1012.67 969.41 1017.33 969.22 1021.99L861.51 1022.18C861.51 1022.18 859.14 1017.14 856.1 1008.58Z" fill="#575757" opacity="1" stroke-width="4" stroke="none"></path><path d="M700.1 1008.69L699.72 1007.07C698.01 998.8 696.96 991.77 695.82 983.21V983.02H728.24L724.34 965.53C723.39 961.06 726.15 956.59 730.61 955.64 731.18 955.55 731.76 955.45 732.42 955.45H762.27V955.64C762.36 963.15 763.89 968.76 767.02 972.85 773.77 981.97 781 987.3 787.27 992.05 793.93 996.99 799.63 1000.7 802.67 1007.83L802.96 1008.69H700.1Z" fill="#ffffff" opacity="1" stroke-width="4" stroke="none"></path><path d="M703.33 1022.18C703.24 1022.18 703.24 1022.18 703.33 1022.18 703.14 1021.41 701.72 1016.57 700.1 1008.58V1008.39H802.77L802.86 1008.49C804.57 1012.76 805.43 1017.42 805.33 1022.08V1022.27L703.33 1022.18Z" fill="#575757" opacity="1" stroke-width="4" stroke="none"></path><path d="M930.24 972.93L916.27 982.06" stroke="#575757" stroke-width="4" stroke-linecap="round" stroke-linejoin="round" opacity="1" fill="none"></path><path d="M937.28 981.01L927.39 992.99" stroke="#575757" stroke-width="4" stroke-linecap="round" stroke-linejoin="round" opacity="1" fill="none"></path><path d="M887.66 981.68L894.79 1007.63" stroke="#575757" stroke-width="4" stroke-linecap="round" stroke-linejoin="round" opacity="1" fill="none"></path><path d="M767.31 973.22L753.71 982.06" stroke="#575757" stroke-width="4" stroke-linecap="round" stroke-linejoin="round" opacity="1" fill="none"></path><path d="M774.44 981.4L764.93 993" stroke="#575757" stroke-width="4" stroke-linecap="round" stroke-linejoin="round" opacity="1" fill="none"></path><path d="M728.52 984.73L735.08 1006.59" stroke="#575757" stroke-width="4" stroke-linecap="round" stroke-linejoin="round" opacity="1" fill="none"></path><path d="M749.63 407.42L750.2 425.01" stroke="#231f20" stroke-width="4" stroke-linecap="round" stroke-linejoin="round" opacity="1" fill="none"></path><path d="M681.85 525.2C688.79 529.47 700.1 529.47 700.1 529.47" stroke="#231f20" stroke-width="4" stroke-linecap="round" stroke-linejoin="round" opacity="1" fill="none"></path></g><g><path d="M1093.41 321.56C1056.42 290.81 1016.42 336.32 1051.63 369.02 1088.62 399.77 1128.62 354.33 1093.41 321.56Z" fill="#231f20" opacity="1" stroke-width="4" stroke="none"></path><path d="M1153.53 758.62C1153.69 758.46 1219.09 694.2 1208.54 806 1203.1 863.6 1183.47 960.39 1200.18 978.81 1202.78 981.73 1205.78 984.17 1208.7 986.27 1223.22 996.82 1231.58 997.71 1232.96 1019.13 1232.96 1019.21 1232.96 1019.21 1232.88 1019.21L1143.39 1014.51C1143.06 1014.35 1129.84 1008.26 1126.43 981.97 1124.65 968.02 1123.02 950.09 1122.62 929.32 1122.21 909.6 1122.62 893.78 1123.51 880.48 1126.19 841.7 1132.92 824.9 1134.79 799.51 1136.74 771.84 1153.45 758.7 1153.53 758.62Z" fill="#c7754d" opacity="1" stroke-width="4" stroke="none"></path><path d="M1129.03 802.75C1120.35 859.95 1095.85 960.39 1112.56 978.81 1115.16 981.65 1118.08 984.08 1121 986.19 1135.52 996.74 1134.38 997.63 1135.76 1019.13 1135.76 1019.21 1135.76 1019.21 1135.68 1019.21L1055.28 1016.94C1055.28 1016.94 1055.2 1016.94 1055.2 1016.86 1051.63 1003.39 1040.51 995.36 1038.48 981.57 1033.86 949.6 1033.21 916.42 1037.59 882.83 1038.97 872.45 1040.76 861.9 1043.03 851.35 1046.11 837.15 1074.1 822.31 1078.97 807.86 1091.95 744.99 1146.07 689.98 1129.03 802.75Z" fill="#c7754d" opacity="1" stroke-width="4" stroke="none"></path><path d="M1203.02 851.43L1123.67 880.4C1123.59 880.4 1123.59 880.4 1123.59 880.32 1126.27 841.7 1133 824.74 1134.79 799.51 1136.74 771.76 1213.65 739.47 1203.02 851.43 1203.1 851.43 1203.1 851.43 1203.02 851.43Z" fill="#000000" opacity="0.2" stroke-width="4" stroke="none"></path><path d="M1120.35 851.51L1037.67 882.83C1037.59 882.83 1037.59 882.83 1037.59 882.75 1039.7 867.09 1041.16 860.68 1043.03 851.43 1052.03 840.97 1067.53 847.46 1070.37 837.23 1070.37 837.15 1070.45 837.15 1070.45 837.15L1120.27 851.35C1120.43 851.35 1120.43 851.51 1120.35 851.51Z" fill="#000000" opacity="0.2" stroke-width="4" stroke="none"></path><path d="M1045.87 981.24C1063.31 981.24 1078.16 993.98 1080.75 1011.18 1080.75 1011.18 1080.75 1011.26 1080.84 1011.26H1104.2C1104.2 1011.26 1104.28 1011.26 1104.28 1011.18 1105.82 1000.88 1111.91 991.71 1120.92 986.27H1121C1132.6 994.71 1145.58 998.93 1151.02 1011.26 1152.48 1014.75 1153.37 1018.4 1153.53 1022.14 1153.53 1022.22 1153.53 1022.22 1153.45 1022.22H1046.68C1046.68 1022.22 1046.6 1022.22 1046.6 1022.14 1043.92 1012.72 1040.68 997.8 1038.48 981.65 1038.48 981.57 1038.48 981.57 1038.57 981.57 1040.84 981.16 1043.43 981.24 1045.87 981.24Z" fill="#1f2223" opacity="1" stroke-width="4" stroke="none"></path><path d="M1133.57 981.24C1151.02 981.24 1165.86 993.98 1168.46 1011.18 1168.46 1011.18 1168.46 1011.26 1168.54 1011.26H1191.91C1191.91 1011.26 1191.99 1011.26 1191.99 1011.18 1193.53 1000.88 1199.61 991.71 1208.62 986.27H1208.7C1220.3 994.71 1233.2 998.93 1238.64 1011.26 1240.1 1014.75 1240.99 1018.4 1241.15 1022.14 1241.15 1022.22 1241.15 1022.22 1241.07 1022.22H1134.3C1134.3 1022.22 1134.22 1022.22 1134.22 1022.14 1131.54 1012.72 1128.54 998.12 1126.35 982.06 1126.35 981.97 1126.35 981.97 1126.43 981.97 1128.79 981.49 1131.14 981.24 1133.57 981.24Z" fill="#1f2223" opacity="1" stroke-width="4" stroke="none"></path><path d="M1098.2 406.5C1096.09 391.74 1092.6 374.46 1115.07 363.26 1128.46 356.61 1141.36 356.93 1149.72 360.26 1156.29 362.45 1161.97 363.91 1165.94 370.07 1172.52 380.13 1175.76 391.82 1176 393.03 1176 393.03 1176 393.12 1176.09 393.12 1176.73 393.2 1183.55 393.68 1184.36 396.44 1185.42 399.85 1180.95 404.07 1180.47 404.47V404.56C1183.31 412.59 1187.28 422.97 1184.85 430.44 1182.66 437.09 1176.25 444.23 1158.56 443.17 1158.48 443.17 1158.48 443.26 1158.48 443.26L1160.99 455.1C1160.99 455.18 1160.99 455.18 1160.91 455.18H1105.74C1105.74 455.18 1105.66 455.18 1105.66 455.1 1101.04 440.01 1099.42 414.78 1098.2 406.5Z" fill="#c7754d" opacity="1" stroke-width="4" stroke="none"></path><path d="M1376.64 431.41C1385.81 426.38 1388.33 432.22 1384.19 439.77 1381.59 444.47 1379.48 448.77 1379.08 449.58 1379.08 449.67 1379.08 449.75 1379.16 449.67 1389.38 447.88 1430.03 439.04 1429.3 450.48 1429.3 450.56 1429.3 450.56 1429.38 450.56 1435.79 451.13 1437.98 457.54 1435.55 460.86V460.94C1442.36 465.41 1436.52 471.65 1436.03 472.14 1436.03 472.14 1436.03 472.14 1436.03 472.22 1436.11 472.79 1437.25 479.93 1426.87 484.8 1416.56 489.58 1392.63 495.67 1385.89 498.18 1375.35 502 1365.94 509.62 1350.52 523.01 1350.52 523.01 1350.44 523.01 1350.36 523.01L1319.45 470.52V470.44C1342.33 453.56 1363.01 438.87 1376.64 431.41Z" fill="#c7754d" opacity="1" stroke-width="4" stroke="none"></path><path d="M1159.7 992.85L1195.31 967.37" stroke="#1f2223" stroke-width="4" stroke-linecap="round" stroke-linejoin="round" opacity="1" fill="none"></path><path d="M1173 412.26C1171.79 413.16 1167 414.21 1164.73 410.72" stroke="#000000" stroke-width="4" stroke-linecap="round" stroke-linejoin="round" opacity="1" fill="none"></path><path d="M1138.76 410.07L1132.03 406.67" stroke="#000000" stroke-width="4" stroke-linecap="round" stroke-linejoin="round" opacity="1" fill="none"></path><path d="M1165.21 391.33C1161.89 391.41 1161.89 396.28 1165.21 396.36 1168.54 396.28 1168.54 391.41 1165.21 391.33Z" fill="#231f20" opacity="1" stroke-width="4" stroke="none"></path><path d="M1436.03 472.3C1436.03 472.3 1397.74 478.95 1393.6 479.77" stroke="#000000" stroke-width="4" stroke-linecap="round" stroke-linejoin="round" opacity="1" fill="none"></path><path d="M1435.55 461.11L1390.27 467.68" stroke="#000000" stroke-width="4" stroke-linecap="round" stroke-linejoin="round" opacity="1" fill="none"></path><path d="M1429.38 450.64L1385.41 457.13" stroke="#000000" stroke-width="4" stroke-linecap="round" stroke-linejoin="round" opacity="1" fill="none"></path><path d="M1072.07 992.85L1107.93 967.21" stroke="#1f2223" stroke-width="4" stroke-linecap="round" stroke-linejoin="round" opacity="1" fill="none"></path><path d="M1357.01 484.71C1361.07 483.09 1371.05 476.2 1379.16 449.42" stroke="#000000" stroke-width="4" stroke-linecap="round" stroke-linejoin="round" opacity="1" fill="none"></path><path d="M1095.44 464.27C1100.96 463.3 1105.82 463.46 1108.34 463.3 1108.42 463.3 1108.42 463.21 1108.42 463.21 1107.77 461.19 1106.88 458.43 1105.91 455.26 1105.91 455.18 1105.91 455.18 1105.99 455.18H1161.16C1161.16 455.18 1161.24 455.18 1161.24 455.26L1161.81 457.78 1162.86 462.4C1162.86 462.4 1162.86 462.48 1162.94 462.48 1163.51 462.4 1168.3 462.08 1175.52 462.57 1175.6 462.57 1175.6 462.65 1175.6 462.65L1147.04 535.83C1147.04 535.91 1146.96 535.91 1146.88 535.83L1095.44 464.51C1095.36 464.35 1095.36 464.27 1095.44 464.27Z" fill="#ffffff" opacity="1" stroke-width="4" stroke="none"></path><path d="M1158.56 443.17C1154.75 442.93 1149.07 442.36 1142.74 440.09" stroke="#000000" stroke-width="4" stroke-linecap="round" stroke-linejoin="round" opacity="1" fill="none"></path><path d="M1054.39 808.84C1059.42 784.58 1059.66 757.97 1061.12 730.95 1063.47 687.87 1068.75 643.73 1100.55 606.01 1100.55 606.01 1100.55 606.01 1100.63 606.01 1101.61 605.85 1129.11 600.98 1153.53 601.38 1171.46 601.63 1188.17 606.98 1189.07 607.22 1189.07 607.22 1189.07 607.22 1189.15 607.31 1189.8 609.33 1219 695.82 1208.62 806.49 1207.32 819.87 1205.29 835.29 1203.18 851.43 1203.18 851.43 1203.18 851.51 1203.1 851.51H1043.19C1043.11 851.51 1043.11 851.43 1043.11 851.43 1047.17 833.58 1051.71 818.66 1054.39 808.84Z" fill="#30ffd5" opacity="1" stroke-width="4" stroke="none"></path><path d="M1158.48 443.09C1157.75 443.01 1149.31 441.96 1142.74 440.09 1142.66 440.09 1142.58 440.17 1142.66 440.25L1161.73 457.7 1161.16 455.18 1158.48 443.09C1158.56 443.09 1158.56 443.09 1158.48 443.09Z" fill="#000000" opacity="0.2" stroke-width="4" stroke="none"></path><path d="M1108.66 611.69L1108.91 611.44C1106.72 609.66 1104.53 607.87 1102.34 606.01 1108.5 606.09 1129.6 606.41 1131.46 606.41 1131.54 606.41 1131.54 606.49 1131.54 606.49L1122.54 622.32C1122.54 622.4 1122.46 622.4 1122.46 622.32 1116.21 617.28 1108.99 611.36 1108.99 611.36L1108.66 611.69Z" fill="#154239" opacity="0.2" stroke-width="4" stroke="none"></path><path d="M1096.74 667.99L1061.28 730.63C1061.2 730.71 1061.12 730.63 1061.12 730.55 1063.07 694.77 1066.72 673.35 1073.94 652.82 1073.94 652.74 1074.02 652.74 1074.02 652.74 1074.51 652.98 1075.08 653.31 1075.48 653.55L1093.25 662.31C1093.41 662.56 1094.47 664.75 1096.66 667.83 1096.74 667.91 1096.74 667.99 1096.74 667.99Z" fill="#154239" opacity="0.2" stroke-width="4" stroke="none"></path><path d="M1117.29 571.88L1186.54 641.12 1105.82 721.83 1036.57 652.59 1117.29 571.88Z" fill="#ffffff" opacity="1" stroke-width="4" stroke="none"></path><path d="M1115.24 685.11C1106.39 680.24 1100.31 672.94 1096.82 667.99 1094.63 664.91 1093.49 662.72 1093.41 662.48L1075.72 653.79C1075.72 653.79 1075.64 653.71 1075.72 653.71L1087.33 627.75 1108.58 611.69 1109.15 611.61C1109.15 611.61 1116.37 617.53 1122.7 622.64 1125.62 624.99 1128.3 627.18 1130 628.48 1137.3 634.16 1173.81 664.18 1170.57 669.86 1167.57 675.13 1159.78 672.05 1158.56 671.56 1158.48 671.56 1158.4 671.56 1158.48 671.64 1160.91 679.84 1171.46 709.86 1160.1 709.61 1160.1 709.61 1160.02 709.61 1160.02 709.69 1157.67 719.75 1148.58 714.89 1147.93 714.56H1147.85C1140.87 720.73 1134.63 712.78 1134.14 712.13H1134.06C1124.97 715.94 1118.48 696.31 1116.29 688.44 1115.56 686.49 1115.32 685.35 1115.24 685.11Z" fill="#c7754d" opacity="1" stroke-width="4" stroke="none"></path><path d="M1056.58 487.31C1068.59 472.22 1084 466.38 1095.28 464.27H1095.36L1146.8 535.67C1146.8 535.75 1146.88 535.75 1146.96 535.67L1175.52 462.4 1175.6 462.32C1185.74 463.05 1200.26 465.57 1214.54 473.19 1235.8 484.55 1268.01 507.19 1269.31 508.16H1269.39C1270.52 507.27 1293.89 489.26 1319.37 470.52H1319.45L1350.36 523.01V523.09C1283.42 582.48 1276.12 587.1 1202.13 545.08 1202.05 545.08 1202.05 545.08 1202.05 545.16 1201.48 547.84 1190.53 600 1189.07 607.14 1188.99 607.63 1131.62 606.33 1131.62 606.33L1102.66 605.93C1102.58 605.93 1102.58 606.01 1102.58 606.09 1104.69 607.79 1106.8 609.58 1108.83 611.28V611.36L1104.28 617.04 1075.72 653.79 1074.1 652.66C1067.04 648.85 1058.77 643.9 1050.74 638.3 1032.64 625.72 1015.36 609.5 1013.82 592.54 1010.58 556.11 1047.09 498.51 1056.58 487.31ZM1085.14 562.11C1085.14 562.03 1085.05 562.03 1084.97 562.11 1084 564.14 1075.24 581.75 1074.67 582.8V582.88C1075.32 583.37 1082.54 589.46 1091.79 597.25 1094.39 599.35 1097.06 601.63 1099.82 603.98L1085.14 562.11Z" fill="#1ddefc" opacity="1" stroke-width="4" stroke="none"></path><path d="M1085.05 561.95L1096.09 538.67C1096.09 538.59 1096.17 538.59 1096.25 538.67L1131.54 606.33C1131.54 606.41 1131.54 606.41 1131.46 606.41L1102.34 606.01C1102.34 606.01 1102.34 606.01 1102.26 606.01 1101.44 605.36 1100.63 604.71 1099.9 604.06L1085.05 561.95Z" fill="#090e0f" opacity="0.2" stroke-width="4" stroke="none"></path><path d="M1189.07 607.31L1106.47 606.01" stroke="#090e0f" stroke-width="4" stroke-linecap="round" stroke-linejoin="round" opacity="1" fill="none"></path><path d="M1146.88 535.83V606.01" stroke="#090e0f" stroke-width="4" stroke-linecap="round" stroke-linejoin="round" opacity="1" fill="none"></path><path d="M1157.43 557.73H1136.09" stroke="#090e0f" stroke-width="4" stroke-linecap="round" stroke-linejoin="round" opacity="1" fill="none"></path><path d="M1157.43 573.8H1136.09" stroke="#090e0f" stroke-width="4" stroke-linecap="round" stroke-linejoin="round" opacity="1" fill="none"></path><path d="M1186.55 641.14L1117.26 571.85 1091.79 597.33 1166.51 661.58 1186.55 641.14Z" fill="#ffffff" opacity="1" stroke-width="4" stroke="none"></path><path d="M1084.97 562.11L1096.25 538.67" stroke="#1b292b" stroke-width="4" stroke-linecap="round" stroke-linejoin="round" opacity="1" fill="none"></path><path d="M1133.9 711.89C1133.09 707.83 1131.46 695.66 1127.41 684.3" stroke="#000000" stroke-width="4" stroke-linecap="round" stroke-linejoin="round" opacity="1" fill="none"></path><path d="M1147.69 714.32C1147.69 714.32 1144.44 694.04 1138.76 680.24" stroke="#000000" stroke-width="4" stroke-linecap="round" stroke-linejoin="round" opacity="1" fill="none"></path><path d="M1159.86 709.53C1154.18 686.82 1150.12 675.38 1150.12 675.38" stroke="#000000" stroke-width="4" stroke-linecap="round" stroke-linejoin="round" opacity="1" fill="none"></path><path d="M1158.4 671.4C1157.26 668.24 1155.88 664.67 1153.94 661.91" stroke="#000000" stroke-width="4" stroke-linecap="round" stroke-linejoin="round" opacity="1" fill="none"></path><path d="M1205.05 830.99H1049.19" stroke="#154239" stroke-width="4" stroke-linecap="round" stroke-linejoin="round" opacity="1" fill="none"></path><path d="M1269.47 508.24L1257.79 500.29" stroke="#1b292b" stroke-width="4" stroke-linecap="round" stroke-linejoin="round" opacity="1" fill="none"></path><path d="M1253.89 569.98C1253.97 570.07 1253.89 570.15 1253.81 570.15 1241.48 567.15 1200.18 544.18 1202.13 545.16 1202.13 545.16 1205.94 523.98 1206.35 521.95 1206.35 521.87 1206.43 521.87 1206.51 521.95 1231.26 550.76 1251.38 567.88 1253.89 569.98Z" fill="#090e0f" opacity="0.2" stroke-width="4" stroke="none"></path><path d="M1202.05 545.24L1206.43 521.95" stroke="#1b292b" stroke-width="4" stroke-linecap="round" stroke-linejoin="round" opacity="1" fill="none"></path><path d="M1036.54 456.72C1033.37 419.48 1062.42 402.45 1092.28 409.59 1092.36 409.59 1092.36 409.59 1092.36 409.5 1092.11 408.29 1091.87 407.15 1091.71 406.34 1089.6 391.57 1090.33 369.83 1112.8 358.63 1126.19 351.98 1141.85 352.87 1150.2 356.2 1156.69 358.39 1161.89 363.91 1165.94 369.99V370.07C1164.24 375.02 1159.94 382.97 1154.26 390.2 1154.26 390.2 1154.18 390.28 1154.18 390.2L1140.79 380.78C1140.71 380.7 1140.63 380.78 1140.71 380.87L1150.2 395.06V395.14C1148.91 396.6 1147.69 397.82 1146.23 399.12H1146.15C1133.17 387.84 1122.46 391.49 1118.64 396.77 1108.1 411.37 1130.73 422.65 1135.68 425.16 1135.68 425.16 1135.68 425.16 1135.68 425.24 1136.74 438.63 1134.79 449.18 1130.08 456.56 1126.35 462.48 1119.7 465.97 1112.64 465.89 1102.74 465.73 1084.32 466.3 1075.72 471.41 1057.23 480.66 1037.11 517.09 1027.94 536.72 1027.94 536.72 1027.86 536.8 1027.86 536.72 996.86 522.36 992 468.16 1036.54 456.8 1036.54 456.8 1036.54 456.8 1036.54 456.72Z" fill="#231f20" opacity="1" stroke-width="4" stroke="none"></path><path d="M1138.68 420.13L1142.74 430.92C1143.47 432.87 1142.5 434.98 1140.55 435.71 1139.66 436.44 1129.68 434.74 1128.46 434.74 1125.78 434.49 1124.32 431.25 1125.78 428.98L1132.19 419.4C1133.73 416.97 1137.71 417.37 1138.68 420.13Z" fill="#ffffff" opacity="1" stroke-width="4" stroke="none"></path></g><g><path d="M172.97 720.54L157.77 697.32 181.36 709.77 189.48 668.04 198.2 712.57 235.55 694.29 208.32 726.32 242.26 759.52 200.71 744.42 197.54 790.81 183 748.7 146.25 769.97 171.95 734.67 134.78 722.83 172.97 720.54Z" fill="#36b3dd" opacity="1" stroke-width="4" stroke="none"></path></g><g><path d="M441.29 1022.02C443.08 1014.21 446.74 996.78 448.96 982.43 448.96 982.36 448.96 982.36 448.89 982.36 443.73 982.57 425.79 980.64 412.67 991.4V991.47L415.32 1021.88C415.32 1021.95 415.32 1021.95 415.39 1021.95L441.29 1022.02Z" fill="#30ffd5" opacity="1" stroke-width="4" stroke="none"></path><path d="M399.69 1009.26C414.25 988.03 435.55 982.79 448.89 982.36 448.89 982.36 448.96 982.36 448.96 982.29 450.04 975.55 450.9 968.8 451.69 962.35 452.48 955.6 453.12 949.01 453.62 942.62 453.62 942.62 453.62 942.55 453.55 942.55L411.59 924.33H411.52L379.31 942.55C379.31 942.55 379.31 942.55 379.24 942.62 379.24 943.55 379.17 944.42 379.17 945.28 378.67 962.49 377.23 972.53 367.62 981.57 357.51 990.68 343.59 998.86 337.5 1008.04 337.28 1008.47 337 1008.83 336.78 1009.26V1009.33C337 1009.76 337.14 1010.12 337.21 1010.19H337.28C339.08 1010.19 397.1 1010.19 398.25 1010.19 398.25 1010.19 398.25 1010.19 398.32 1010.19L399.69 1009.26Z" fill="#ffffff" opacity="1" stroke-width="4" stroke="none"></path><path d="M451.69 962.35C452.48 955.46 453.12 948.79 453.62 942.48H379.31C379.31 943.41 379.24 944.27 379.24 945.28L451.69 962.35Z" fill="#474747" opacity="0.2" stroke-width="4" stroke="none"></path><path d="M573.7 1022.02C575.2 1015.5 579.08 992.33 580.08 982.57 580.08 982.5 580.08 982.5 580.01 982.5 573.77 982.93 558.06 983.44 546.23 993.12V993.19L548.74 1021.88C548.74 1021.95 548.74 1021.95 548.81 1021.95L573.7 1022.02Z" fill="#30ffd5" opacity="1" stroke-width="4" stroke="none"></path><path d="M533.09 1009.26C547.51 988.96 565.58 983.58 580 982.5 580 982.5 580.07 982.5 580.07 982.43 580.79 976.48 581.44 970.52 582.01 964.71 582.73 957.11 583.23 949.72 583.59 942.62 583.59 942.55 583.59 942.55 583.52 942.55H508.42C508.35 942.55 508.35 942.62 508.35 942.62 508.49 944.34 508.63 945.92 508.78 947.5 509.92 964.07 508.99 973.68 498.45 983.44 492.78 988.24 487.98 991.9 484.1 994.84 477.43 999.86 473.06 1003.23 469.97 1008.04 469.76 1008.47 469.47 1008.83 469.25 1009.26 469.25 1009.83 469.25 1009.97 469.25 1009.9 470.47 1009.9 530.01 1010.69 531.44 1010.69 531.44 1010.69 531.44 1010.69 531.51 1010.69L533.09 1009.26Z" fill="#ffffff" opacity="1" stroke-width="4" stroke="none"></path><path d="M286 523.66L336.92 493.61C337 493.61 337.07 493.61 337.07 493.68 340.22 499.85 343.95 507.23 347.4 514.12 352.27 523.95 356.72 532.91 358.44 536.43 358.44 536.5 358.59 536.5 358.59 536.43 360.09 534.63 377.09 514.19 390.07 499.27 401.12 487.15 413.6 478.47 427.09 473.45 438.71 469.29 445.52 469.08 449.89 469.08 449.97 469.08 450.04 469 450.04 468.93L450.11 459.54C450.11 459.46 450.18 459.39 450.25 459.39H506.7C506.78 459.39 506.85 459.46 506.85 459.54 506.63 462.19 506.42 467.21 506.42 467.86 506.42 467.93 506.42 467.93 506.49 467.93L506.7 468.07C507.28 468.07 507.85 468.07 508.5 468.07 540.27 469 556.55 486.79 576.78 532.41 594.28 575.66 599.81 597.4 580.01 627.81 575.99 633.91 567.53 641.58 559.06 648.39 571.83 699.11 557.41 747.02 561.93 800.03 564.01 816.45 569.11 832.59 573.41 848.08 576.71 859.92 569.82 883.95 569.82 883.95L567.96 934.09C567.96 934.09 389.86 932.22 389.43 924.91 388.64 912.07 381.61 883.81 381.61 883.81 381.61 883.81 374.29 865.44 373.94 855.76 370.92 762.66 399.4 666.25 436.05 598.47 434.98 594.24 426.15 558.88 425.29 555.44 425.29 555.36 425.15 555.29 425.08 555.44 423.93 557.16 415.04 567.99 403.27 579.11 388.71 592.88 369.56 607.22 354.86 605.64 334.13 604.64 318.06 591.66 305.08 574.08 299.34 556.22 286.71 525.6 285.93 523.73 285.93 523.73 286 523.66 286 523.66Z" fill="#30ffd5" opacity="1" stroke-width="4" stroke="none"></path><path d="M582.01 964.71C582.73 957.11 583.23 949.94 583.59 942.84L507.99 938.82C508.13 940.47 508.7 945.85 508.78 947.5L582.01 964.71Z" fill="#474747" opacity="0.2" stroke-width="4" stroke="none"></path><path d="M358.51 536.5C357.65 534.78 356.15 531.62 354.14 527.68 354.07 527.53 353.85 527.53 353.85 527.68L349.4 547.33C349.33 547.47 349.55 547.62 349.69 547.47L358.51 536.64C358.59 536.57 358.59 536.57 358.51 536.5Z" fill="#31fdd4" opacity="0.2" stroke-width="4" stroke="none"></path><path d="M335.27 505.58C335.27 505.58 338.49 496.33 337.06 493.46 334.76 488.73 332.4 483.85 329.89 479.12 329.96 469.29 327.59 459.25 322.86 449.13 320.49 444.19 319.34 437.8 318.48 432.71 317.48 427.11 316.69 422.74 314.75 422.67 309.95 422.45 308.08 432.28 306.29 443.61 306.15 444.76 304.71 445.19 303.92 444.4 293.74 434.36 277.74 405.02 265.83 412.77 265.62 412.91 265.33 412.91 265.12 412.84 260.24 411.05 256.15 413.49 256.65 419.01 256.65 419.3 256.51 419.65 256.22 419.8 248.63 424.03 264.83 447.56 265.91 450.28 266.05 450.57 265.69 450.86 265.4 450.71 258.16 445.84 251.92 435.58 248.12 439.59 246.12 442.25 252.78 453.44 265.83 469.86 266.12 470.22 266.34 470.65 266.55 471.08 272.5 487.58 278.17 498.34 285.49 501.07 285.92 501.21 286.28 501.57 286.42 502.07 288.14 508.24 291.66 519.36 292.3 522.94 292.16 522.94 335.27 505.58 335.27 505.58Z" fill="#804a28" opacity="1" stroke-width="4" stroke="none"></path><path d="M506.84 459.46C508.06 439.16 510.64 402.58 510.93 390.53 511.22 381.14 507.77 372.1 501.17 365.07 492.78 355.6 476 356.32 463.3 356.46 445.01 356.75 427.22 376.12 426.15 379.42 422.7 389.96 423.06 402.44 421.48 412.7 419.62 423.96 418.04 432.06 423.13 440.46 428.15 449.42 440.13 453.8 450.25 450.78L450.17 459.46H506.84Z" fill="#804a28" opacity="1" stroke-width="4" stroke="none"></path><path d="M458 388.31C478.44 388.31 509.29 379.2 509.57 379.06 505.13 364.07 491.28 353.45 475.21 352.66 462.81 352.09 450.68 354.38 441.43 359.98 434.19 364.35 428.66 370.81 426.15 379.42 426.22 379.49 431.39 385.94 452.62 388.02 454.2 388.24 455.99 388.31 458 388.31 457.93 388.31 457.93 388.31 458 388.31Z" fill="#ffffff" opacity="1" stroke-width="4" stroke="none"></path><path d="M452.76 408.03C451.42 408.03 450.32 406.94 450.32 405.6 450.32 404.25 451.42 403.16 452.76 403.16 454.11 403.16 455.2 404.25 455.2 405.6 455.2 406.94 454.11 408.03 452.76 408.03Z" fill="#231f20" opacity="1" stroke-width="4" stroke="none"></path><path d="M432.18 404.95C430.83 404.95 429.74 403.86 429.74 402.51 429.74 401.16 430.83 400.07 432.18 400.07 433.52 400.07 434.62 401.16 434.62 402.51 434.62 403.86 433.52 404.95 432.18 404.95Z" fill="#231f20" opacity="1" stroke-width="4" stroke="none"></path><path d="M466.25 731.24C468.4 731.24 470.7 730.24 472.35 728.51 482.39 731.1 484.54 719.69 485.9 709.72 486.12 708.43 486.33 707.14 486.48 705.92 486.55 705.71 486.83 705.71 486.91 705.92 488.99 715.82 492.72 724 497.24 721.05 499.17 719.76 500.75 706.64 497.88 689.35 497.81 688.99 497.95 688.56 498.17 688.28 508.42 675.29 511.37 664.17 511.87 661.88 511.94 661.59 512.08 661.38 512.37 661.23 518.32 657.79 523.34 654.63 527.86 651.62L504.91 619.7C504.91 619.7 494.87 621.42 490.78 625.94 480.31 637.56 465.96 654.99 460.08 668.41 453.41 686.12 445.66 724.57 460.15 726.22 461.59 730.59 464.6 731.24 466.25 731.24Z" fill="#804a28" opacity="1" stroke-width="4" stroke="none"></path><path d="M519.69 594.81L515.24 549.41C515.24 549.05 515.67 548.98 515.81 549.27L531.45 582.4C531.23 582.55 526.21 587.86 519.69 594.81Z" fill="#30ffd5" opacity="0.2" stroke-width="4" stroke="none"></path><path d="M510.86 527.25C511.51 527.25 512.15 527.25 512.8 527.25 524.85 526.89 541.2 523.59 550.53 510.25 556.12 502.28 556.55 494.32 556.55 494.25 540.13 470.65 517.53 468.14 508.57 468.14 507.92 468.14 507.35 468.14 506.78 468.14L506.42 467.86C506.42 467.78 506.63 462.19 506.85 459.39H450.18L450.11 469C449.68 469 449.25 469 448.75 469 446.67 469 444.59 469.15 442.58 469.43 442.94 474.96 449.39 489.45 460.51 502.14 470.48 513.62 487.27 527.25 510.86 527.25Z" fill="#30ffd5" opacity="0.2" stroke-width="4" stroke="none"></path><path d="M511.72 517.99C526.93 518.28 545.8 513.26 554.98 503.5 562.51 496.04 565.74 486.36 564.44 475.6 563.08 464.91 557.13 457.74 551.25 453.22 545.15 448.49 539.12 446.55 538.19 446.27 538.12 446.27 538.12 446.19 538.12 446.12 543.5 432.06 538.26 423.53 531.09 411.76 526.93 404.95 522.27 397.2 518.61 386.73 510.72 364.21 496.95 352.37 474.86 352.37 460.37 352.37 449.89 354.96 441.65 359.98 441.57 359.98 441.57 360.12 441.65 360.12 443.73 360.69 465.68 367.29 469.76 390.32 471.92 402.58 475.21 421.09 469.76 432.64 462.66 447.7 451.11 451.07 442.36 451.07 437.63 451.07 434.04 449.85 433.97 449.85 433.9 449.92 424.65 459.32 431.75 472.09L439.71 470.08C440.07 470.01 440.43 470.15 440.57 470.51 448.53 490.45 475.57 519.14 511.72 517.99Z" fill="#1ddefc" opacity="1" stroke-width="4" stroke="none"></path><path d="M551.03 453.08C547.16 450.14 542.78 447.77 538.12 446.27 537.98 446.19 537.9 446.27 537.83 446.41 537.33 447.92 534.18 457.02 525.14 459.1 524.99 459.18 524.99 459.39 525.14 459.39 529.23 459.32 541.35 458.6 550.96 453.29 551.1 453.29 551.1 453.08 551.03 453.08Z" fill="#08090a" opacity="0.2" stroke-width="4" stroke="none"></path><path d="M583.59 942.84C584.52 923.18 584.23 904.1 581.22 884.81 579.28 872.47 576.85 860.06 573.4 848.08 568.45 846 563.5 844.93 559.27 844.93 533.95 846.08 534.53 871.61 545.57 902.17 545.72 902.67 545.14 903.03 544.78 902.6 535.82 891.84 501.89 856.84 495.79 895.5 495.72 895.93 495.15 896 494.93 895.64 471.62 854.68 428.8 843.21 433.61 909.27 433.68 909.77 432.96 909.99 432.74 909.48 429.01 900.52 417.32 878.35 402.91 891.91 402.69 892.13 402.26 892.05 402.19 891.7 400.75 886.96 391.79 860.35 373.93 855.69 374.21 864.73 375.08 874.19 375.79 884.59 376.65 898.08 377.8 911.49 378.59 924.33 379.02 931.65 379.24 937.6 379.24 942.77 379.59 943.05 583.23 942.69 583.59 942.84Z" fill="#1ddefc" opacity="1" stroke-width="4" stroke="none"></path><path d="M487.26 855.9C488.98 855.9 490.56 855.47 491.99 854.68 497.3 851.6 498.59 843.85 494.79 837.33 492.14 832.81 487.54 829.87 483.1 829.87 481.38 829.87 479.8 830.3 478.36 831.09 473.06 834.17 471.76 841.92 475.57 848.44 478.15 852.96 482.74 855.9 487.26 855.9Z" fill="#1ddefc" opacity="1" stroke-width="4" stroke="none"></path><path d="M534.31 679.31C556.12 658.87 571.04 642.08 580 627.81 580 627.81 580 627.81 580 627.74 578.28 620.78 571.54 615.97 563.58 615.97 560.42 615.97 557.26 616.76 554.47 618.27 546.29 622.57 539.4 634.05 536.53 639.29 536.03 640.22 534.6 640.07 534.31 639.07 531.94 631.75 523.84 612.89 503.9 611.53 497.8 617.98 493.35 623.29 490.77 625.94L534.31 679.31Z" fill="#1ddefc" opacity="1" stroke-width="4" stroke="none"></path><path d="M305.22 574.08C322.72 561.1 317.92 535.64 316.12 528.47 315.91 527.6 316.62 526.74 317.56 526.89 318.99 527.1 320.43 527.17 321.79 527.17 333.7 527.17 343.67 520.58 347.54 514.12 343.59 506.16 339.94 498.99 337.14 493.46L278.97 521.51C278.18 521.87 277.82 522.87 278.11 523.66 286.43 543.67 304.22 572.51 305.15 574.01 305.15 574.08 305.15 574.08 305.22 574.08Z" fill="#1ddefc" opacity="1" stroke-width="4" stroke="none"></path><path d="M391.64 1021.95C393.94 1017.58 396.59 1013.35 399.61 1009.33 399.61 1009.26 399.61 1009.19 399.53 1009.19H336.92 336.84C334.84 1012.41 333.69 1018.22 333.83 1021.88 333.83 1021.95 333.83 1021.95 333.9 1021.95 336.34 1022.02 389.92 1022.02 391.64 1021.95 391.64 1022.02 391.64 1022.02 391.64 1021.95Z" fill="#30ffd5" opacity="1" stroke-width="4" stroke="none"></path><path d="M525.06 1021.95C527.43 1017.58 530.01 1013.27 533.02 1009.33 533.02 1009.26 533.02 1009.19 532.95 1009.19H469.33C469.33 1009.19 469.25 1009.19 469.25 1009.26 467.25 1012.92 466.24 1016.86 466.24 1021.88 466.24 1021.95 466.24 1021.95 466.31 1021.95H525.06C525.06 1022.02 525.06 1022.02 525.06 1021.95Z" fill="#30ffd5" opacity="1" stroke-width="4" stroke="none"></path><path d="M425.29 555.22L420.56 535.71C420.49 535.28 419.91 535.28 419.77 535.64L404.13 577.03C403.92 577.53 404.56 577.89 404.92 577.53 409.58 572.94 423.14 559.17 425.29 555.22Z" fill="#31fdd4" opacity="0.2" stroke-width="4" stroke="none"></path><path d="M301.63 479.83C298.33 465.99 302.42 459.89 304.5 453.65 305.29 451.29 306.22 443.9 306.22 443.9" stroke="#000000" stroke-width="4" stroke-linecap="round" stroke-linejoin="round" opacity="1" fill="none"></path><path d="M288.36 441.89C288.36 441.89 277.25 425.54 265.48 413.06" stroke="#000000" stroke-width="4" stroke-linecap="round" stroke-linejoin="round" opacity="1" fill="none"></path><path d="M278.75 448.49C278.75 448.49 261.82 424.96 256.65 419.8" stroke="#000000" stroke-width="4" stroke-linecap="round" stroke-linejoin="round" opacity="1" fill="none"></path><path d="M269.92 455.81L266.19 451.29" stroke="#000000" stroke-width="4" stroke-linecap="round" stroke-linejoin="round" opacity="1" fill="none"></path><path d="M358.58 536.57L368.19 525.09" stroke="#f1fefc" stroke-width="4" stroke-linecap="round" stroke-linejoin="round" opacity="1" fill="none"></path><path d="M436.12 598.47L513.65 598.83" stroke="#f1fefc" stroke-width="4" stroke-linecap="round" stroke-linejoin="round" opacity="1" fill="none"></path><path d="M440.71 415.06L440.5 414.85C439.57 414.06 439.28 412.77 439.64 411.62L440.21 409.54" stroke="#000000" stroke-width="4" stroke-linecap="round" stroke-linejoin="round" opacity="1" fill="none"></path><path d="M446.37 422.17C443.86 425.25 439.56 425.11 438.2 424.17" stroke="#000000" stroke-width="4" stroke-linecap="round" stroke-linejoin="round" opacity="1" fill="none"></path><path d="M515.02 547.69L531.45 582.48" stroke="#f1fefc" stroke-width="4" stroke-linecap="round" stroke-linejoin="round" opacity="1" fill="none"></path><path d="M503.9 611.6L531.37 582.4" stroke="#f1fefc" stroke-width="4" stroke-linecap="round" stroke-linejoin="round" opacity="1" fill="none"></path><path d="M508.63 964.64L524.05 969.74" stroke="#474747" stroke-width="4" stroke-linecap="round" stroke-linejoin="round" opacity="1" fill="none"></path><path d="M505.63 974.9L519.26 984.15" stroke="#474747" stroke-width="4" stroke-linecap="round" stroke-linejoin="round" opacity="1" fill="none"></path><path d="M377.37 964.64L392.79 969.74" stroke="#474747" stroke-width="4" stroke-linecap="round" stroke-linejoin="round" opacity="1" fill="none"></path><path d="M374.15 974.76L387.99 984.15" stroke="#474747" stroke-width="4" stroke-linecap="round" stroke-linejoin="round" opacity="1" fill="none"></path><path d="M425.21 555.29L422.34 543.6" stroke="#f1fefc" stroke-width="4" stroke-linecap="round" stroke-linejoin="round" opacity="1" fill="none"></path><path d="M460.15 726.29C459.43 714.81 461.16 697.24 464.03 685.76" stroke="#000000" stroke-width="4" stroke-linecap="round" stroke-linejoin="round" opacity="1" fill="none"></path><path d="M472.35 728.51C471.63 712.73 474.78 690.07 474.78 690.07" stroke="#000000" stroke-width="4" stroke-linecap="round" stroke-linejoin="round" opacity="1" fill="none"></path><path d="M486.98 693.65L486.69 705.85" stroke="#000000" stroke-width="4" stroke-linecap="round" stroke-linejoin="round" opacity="1" fill="none"></path><path d="M538.04 446.05C535.46 453.94 530.8 457.17 525.2 459.39" stroke="#08090a" stroke-width="4" stroke-linecap="round" stroke-linejoin="round" opacity="1" fill="none"></path><path d="M433.9 449.78C443.94 452.65 453.27 449.42 456.85 447.05" stroke="#08090a" stroke-width="4" stroke-linecap="round" stroke-linejoin="round" opacity="1" fill="none"></path></g><g><path d="M1297.75 162.42C1304.43 164.29 1310.03 168.8 1313.29 175.01L1319.97 187.75 1326.65 175.01C1329.92 168.8 1335.51 164.29 1342.19 162.42 1364.73 156.05 1383.06 181.07 1370.32 200.65L1319.97 277.57 1269.62 200.65C1256.88 181.07 1275.22 156.05 1297.75 162.42Z" fill="#36b3dd" opacity="1" stroke-width="4" stroke="none"></path></g><g><path d="M295.71 206.91C301.79 208.6 306.89 212.71 309.86 218.37L315.94 229.97 322.03 218.37C325 212.71 330.1 208.6 336.18 206.91 356.7 201.1 373.4 223.89 361.8 241.72L315.94 311.77 270.09 241.72C258.49 223.89 275.19 201.1 295.71 206.91Z" fill="#36b3dd" opacity="1" stroke-width="4" stroke="none"></path></g><g><path d="M1379.21 893.9L1365.89 858.78 1392.45 882.09 1397.24 858.04 1405.27 880.86 1427.32 860.46 1414.86 889.31 1454 889.72 1414.82 903.2 1444.94 930.57 1406.42 920 1400.07 960.2 1389.78 920.53 1358.93 946.02 1379.34 907.62 1341.55 897.91 1379.21 893.9Z" fill="#36b3dd" opacity="1" stroke-width="4" stroke="none"></path></g></svg>