<svg id="visual" viewBox="0 0 900 600" width="900" height="600" xmlns="http://www.w3.org/2000/svg" xmlns:xlink="http://www.w3.org/1999/xlink" version="1.1"><path d="M0 127L13.7 121C27.3 115 54.7 103 82 123C109.3 143 136.7 195 163.8 214C191 233 218 219 245.2 206C272.3 193 299.7 181 327 195C354.3 209 381.7 249 409 246C436.3 243 463.7 197 491 182C518.3 167 545.7 183 573 207C600.3 231 627.7 263 654.8 256C682 249 709 203 736.2 173C763.3 143 790.7 129 818 151C845.3 173 872.7 231 886.3 260L900 289L900 0L886.3 0C872.7 0 845.3 0 818 0C790.7 0 763.3 0 736.2 0C709 0 682 0 654.8 0C627.7 0 600.3 0 573 0C545.7 0 518.3 0 491 0C463.7 0 436.3 0 409 0C381.7 0 354.3 0 327 0C299.7 0 272.3 0 245.2 0C218 0 191 0 163.8 0C136.7 0 109.3 0 82 0C54.7 0 27.3 0 13.7 0L0 0Z" fill="#6198ff"></path><path d="M0 199L13.7 198C27.3 197 54.7 195 82 215C109.3 235 136.7 277 163.8 291C191 305 218 291 245.2 274C272.3 257 299.7 237 327 246C354.3 255 381.7 293 409 295C436.3 297 463.7 263 491 256C518.3 249 545.7 269 573 290C600.3 311 627.7 333 654.8 326C682 319 709 283 736.2 257C763.3 231 790.7 215 818 230C845.3 245 872.7 291 886.3 314L900 337L900 287L886.3 258C872.7 229 845.3 171 818 149C790.7 127 763.3 141 736.2 171C709 201 682 247 654.8 254C627.7 261 600.3 229 573 205C545.7 181 518.3 165 491 180C463.7 195 436.3 241 409 244C381.7 247 354.3 207 327 193C299.7 179 272.3 191 245.2 204C218 217 191 231 163.8 212C136.7 193 109.3 141 82 121C54.7 101 27.3 113 13.7 119L0 125Z" fill="#3c80ff"></path><path d="M0 373L13.7 374C27.3 375 54.7 377 82 393C109.3 409 136.7 439 163.8 450C191 461 218 453 245.2 438C272.3 423 299.7 401 327 400C354.3 399 381.7 419 409 427C436.3 435 463.7 431 491 423C518.3 415 545.7 403 573 409C600.3 415 627.7 439 654.8 449C682 459 709 455 736.2 440C763.3 425 790.7 399 818 398C845.3 397 872.7 421 886.3 433L900 445L900 335L886.3 312C872.7 289 845.3 243 818 228C790.7 213 763.3 229 736.2 255C709 281 682 317 654.8 324C627.7 331 600.3 309 573 288C545.7 267 518.3 247 491 254C463.7 261 436.3 295 409 293C381.7 291 354.3 253 327 244C299.7 235 272.3 255 245.2 272C218 289 191 303 163.8 289C136.7 275 109.3 233 82 213C54.7 193 27.3 195 13.7 196L0 197Z" fill="#0066ff"></path><path d="M0 517L13.7 516C27.3 515 54.7 513 82 516C109.3 519 136.7 527 163.8 525C191 523 218 511 245.2 510C272.3 509 299.7 519 327 530C354.3 541 381.7 553 409 551C436.3 549 463.7 533 491 523C518.3 513 545.7 509 573 511C600.3 513 627.7 521 654.8 523C682 525 709 521 736.2 517C763.3 513 790.7 509 818 515C845.3 521 872.7 537 886.3 545L900 553L900 443L886.3 431C872.7 419 845.3 395 818 396C790.7 397 763.3 423 736.2 438C709 453 682 457 654.8 447C627.7 437 600.3 413 573 407C545.7 401 518.3 413 491 421C463.7 429 436.3 433 409 425C381.7 417 354.3 397 327 398C299.7 399 272.3 421 245.2 436C218 451 191 459 163.8 448C136.7 437 109.3 407 82 391C54.7 375 27.3 373 13.7 372L0 371Z" fill="#0059dd"></path><path d="M0 601L13.7 601C27.3 601 54.7 601 82 601C109.3 601 136.7 601 163.8 601C191 601 218 601 245.2 601C272.3 601 299.7 601 327 601C354.3 601 381.7 601 409 601C436.3 601 463.7 601 491 601C518.3 601 545.7 601 573 601C600.3 601 627.7 601 654.8 601C682 601 709 601 736.2 601C763.3 601 790.7 601 818 601C845.3 601 872.7 601 886.3 601L900 601L900 551L886.3 543C872.7 535 845.3 519 818 513C790.7 507 763.3 511 736.2 515C709 519 682 523 654.8 521C627.7 519 600.3 511 573 509C545.7 507 518.3 511 491 521C463.7 531 436.3 547 409 549C381.7 551 354.3 539 327 528C299.7 517 272.3 507 245.2 508C218 509 191 521 163.8 523C136.7 525 109.3 517 82 514C54.7 511 27.3 513 13.7 514L0 515Z" fill="#004cbb"></path></svg>